<mxfile host="65bd71144e">
    <diagram id="JG2SXHwxrhJaE5vdqtjB" name="Page-1">
        <mxGraphModel dx="849" dy="801" grid="1" gridSize="10" guides="1" tooltips="1" connect="1" arrows="1" fold="1" page="1" pageScale="1" pageWidth="850" pageHeight="1100" math="0" shadow="0">
            <root>
                <mxCell id="0"/>
                <mxCell id="1" parent="0"/>
                <mxCell id="2" value="" style="verticalLabelPosition=bottom;verticalAlign=top;html=1;shape=mxgraph.basic.rect;fillColor2=none;strokeWidth=1;size=20;indent=5;" vertex="1" parent="1">
                    <mxGeometry x="70" y="40" width="710" height="460" as="geometry"/>
                </mxCell>
                <mxCell id="3" value="Is It a Negative Number?" style="text;html=1;align=center;verticalAlign=middle;resizable=0;points=[];autosize=1;strokeColor=none;fillColor=none;strokeWidth=1;fontSize=30;" vertex="1" parent="1">
                    <mxGeometry x="110" y="70" width="350" height="40" as="geometry"/>
                </mxCell>
                <mxCell id="4" value="" style="shape=partialRectangle;whiteSpace=wrap;html=1;top=0;left=0;fillColor=none;fontSize=30;strokeWidth=1;" vertex="1" parent="1">
                    <mxGeometry x="110" y="150" width="180" height="20" as="geometry"/>
                </mxCell>
                <mxCell id="5" value="&lt;font style=&quot;font-size: 20px&quot;&gt;-91&lt;/font&gt;" style="text;html=1;align=center;verticalAlign=middle;resizable=0;points=[];autosize=1;strokeColor=none;fillColor=none;fontSize=30;fontColor=#A3A3A3;" vertex="1" parent="1">
                    <mxGeometry x="165" y="130" width="40" height="40" as="geometry"/>
                </mxCell>
                <mxCell id="7" value="&lt;font color=&quot;#080808&quot;&gt;Determine if Negative&amp;nbsp;&lt;/font&gt;" style="labelPosition=center;verticalLabelPosition=middle;align=center;html=1;shape=mxgraph.basic.button;dx=10;fontSize=20;fontColor=#A3A3A3;strokeWidth=1;" vertex="1" parent="1">
                    <mxGeometry x="110" y="200" width="230" height="60" as="geometry"/>
                </mxCell>
                <mxCell id="8" value="&lt;font style=&quot;font-size: 25px&quot;&gt;The number is negative!&lt;/font&gt;" style="text;html=1;align=center;verticalAlign=middle;resizable=0;points=[];autosize=1;strokeColor=none;fillColor=none;fontSize=20;fontColor=#080808;" vertex="1" parent="1">
                    <mxGeometry x="80" y="290" width="290" height="30" as="geometry"/>
                </mxCell>
            </root>
        </mxGraphModel>
    </diagram>
</mxfile>